Coordinates
version=1
nRows=7
nColumns=33
inDegrees=yes

Units are S.I. units (second, meters, Newtons, ...)
Angles are in degrees.

endheader
time	ground_thorax_rot_x	ground_thorax_rot_y	ground_thorax_rot_z	ground_thorax_tx	ground_thorax_ty	ground_thorax_tz	clav_prot_r	clav_elev_r	scapula_abduction_r	scapula_elevation_r	scapula_upward_rot_r	scapula_winging_r	shoulder_elv_r	plane_of_elev_r	axial_rot_r	elbow_flexion_r	pro_sup_r	wrist_flex_r	wrist_dev_r	clav_prot_l	clav_elev_l	scapula_abduction_l	scapula_elevation_l	scapula_upward_rot_l	scapula_winging_l	shoulder_elv_l	plane_of_elev_l	axial_rot_l	elbow_flexion_l	pro_sup_l	wrist_flex_l	wrist_dev_l
      1.16000000	      0.53480872	      7.08837555	     11.95577942	     -0.10893903	      1.02920559	      0.02953950	      4.00349374	      8.81268671	     17.56059285	      5.28792561	     22.05326233	    -10.07134691	      8.75265539	    -70.31172930	     58.14354040	     50.05481964	    -34.63115985	     70.00000021	    -24.99999983	     13.66342369	     -6.01045339	    -21.49078930	    -20.32426368	    -44.88174339	      1.60614717	     61.34198046	    -31.80797270	      0.01614003	     59.52743420	     22.97886420	     -8.47473491	    -24.99999983
      1.17000000	      0.64394990	      7.27390159	     11.97137801	     -0.10865703	      1.02919390	      0.02973441	      3.86913904	      8.91618083	     17.20323599	      5.40862108	     21.96867481	     -9.96137988	      9.97035259	    -70.54842222	     57.99606726	     51.22319227	    -33.94665144	     70.00000021	    -24.99999983	     13.76609170	     -6.18722503	    -21.70262533	    -20.20624069	    -45.00000000	      1.70044916	     61.47480913	    -31.56353901	      0.33721749	     60.14177088	     22.49221584	     -8.75663423	    -24.99999983
      1.18000000	      0.50690181	      7.22741456	     11.85734643	     -0.10850670	      1.02929297	      0.02974012	      3.78428562	      9.02700526	     17.21527640	      5.42046514	     22.22001345	    -10.00521700	     10.21180399	    -70.34559676	     57.89566707	     51.83239787	    -33.80489953	     70.00000021	    -24.99999983	     13.79816492	     -6.10022752	    -21.71400122	    -20.22162105	    -44.85557882	      1.72625924	     61.65256739	    -31.43806671	      0.63143447	     60.87193851	     22.33045998	     -8.86110806	    -24.99999983
      1.19000000	      0.55889210	      7.27465748	     11.95527273	     -0.10813956	      1.02927624	      0.02994757	      3.62886923	      9.19848841	     16.91515039	      5.55023280	     22.27990201	     -9.93387350	     11.21290964	    -70.65704836	     57.49776948	     53.19000150	    -33.24079532	     70.00000021	    -24.99999983	     13.83849877	     -6.26151385	    -21.79109438	    -20.08659517	    -44.89524747	      1.76532068	     61.79492025	    -31.39506620	      1.08940420	     61.55003781	     21.80970859	     -8.91268421	    -24.99999983
      1.20000000	      0.64214873	      7.33827452	     11.96245215	     -0.10800777	      1.02946724	      0.02996908	      3.57043071	      9.19826454	     16.72809548	      5.58221280	     22.19121510	     -9.86940257	     12.57871560	    -70.88950046	     57.21753640	     54.38255012	    -32.33845957	     70.00000021	    -24.99999983	     13.94586060	     -6.46224905	    -22.00647368	    -19.94055932	    -45.00000000	      1.86395488	     61.94263257	    -31.24193875	      1.43996050	     62.45628946	     20.97937841	     -8.75802788	    -24.99999983
      1.21000000	      0.66318659	      7.44444886	     11.88087296	     -0.10830096	      1.02979612	      0.02997545	      3.58927569	      8.96917236	     16.52448841	      5.51575031	     21.80943102	     -9.74683670	     14.68684624	    -70.88884581	     57.42695595	     55.68426824	    -30.76101826	     70.00000021	    -24.99999983	     14.20717582	     -6.66884906	    -22.45105256	    -19.73300708	    -45.00000000	      2.09114242	     62.14468128	    -30.98400068	      1.61220500	     63.11161884	     19.29901257	     -7.85799147	    -24.99999983
      1.22000000	      0.51349717	      7.36758927	     11.84362907	     -0.10817148	      1.02992207	      0.02996982	      3.47371394	      9.14036190	     16.55890566	      5.53670044	     22.18508375	     -9.81532705	     14.88713263	    -70.63378899	     57.30833001	     56.36582955	    -30.71664448	     70.00000021	    -24.99999983	     14.24133413	     -6.52392456	    -22.45223298	    -19.77864003	    -44.80518626	      2.11714148	     62.38542767	    -30.82998856	      1.87517601	     63.88424335	     19.13253616	     -7.85715690	    -24.99999983
